<?xml version="1.0" standalone="no"?>
<!DOCTYPE svg PUBLIC "-//W3C//DTD SVG 20010904//EN"
 "http://www.w3.org/TR/2001/REC-SVG-20010904/DTD/svg10.dtd">
<svg version="1.0" xmlns="http://www.w3.org/2000/svg"
 width="700.000000pt" height="700.000000pt" viewBox="0 0 700.000000 700.000000"
 preserveAspectRatio="xMidYMid meet">
<metadata>
Created by potrace 1.14, written by Peter Selinger 2001-2017
</metadata>
<g transform="translate(0.000000,700.000000) scale(0.100000,-0.100000)"
fill="#000000" stroke="none">
<path d="M5454 6771 c-86 -22 -151 -69 -229 -165 -336 -414 -638 -599 -1251
-767 -103 -28 -194 -52 -203 -54 -9 -2 -77 -17 -151 -34 -140 -33 -439 -96
-500 -106 -19 -3 -51 -10 -70 -15 -19 -5 -46 -11 -60 -13 -34 -6 -189 -36
-220 -42 -14 -3 -38 -8 -55 -11 -232 -41 -558 -172 -784 -313 -77 -48 -180
-119 -191 -131 -3 -3 -27 -23 -55 -45 -144 -114 -278 -254 -420 -440 -214
-279 -397 -721 -441 -1065 -3 -25 -7 -52 -9 -60 -22 -84 -22 -462 0 -605 3
-16 7 -46 10 -65 12 -86 41 -217 70 -313 l17 -58 -85 -82 c-267 -260 -460
-604 -546 -977 -43 -183 -56 -294 -56 -480 0 -144 0 -146 32 -211 112 -227
406 -277 582 -101 82 82 106 158 115 352 2 63 7 129 11 145 3 17 10 55 16 87
24 138 105 334 193 466 63 95 84 119 93 106 11 -16 71 -89 118 -143 69 -80
210 -216 286 -277 41 -32 76 -62 79 -65 25 -29 265 -177 380 -234 146 -73 393
-163 525 -190 11 -3 31 -7 45 -10 50 -11 76 -15 115 -20 22 -3 47 -7 55 -10
35 -9 167 -18 320 -20 201 -2 358 10 530 41 47 9 96 18 110 20 14 3 52 12 85
20 33 9 67 17 75 19 223 47 591 202 855 360 326 195 583 412 860 726 155 176
349 473 465 714 141 291 252 653 285 924 4 30 8 61 10 70 26 136 26 800 1 938
-2 10 -7 50 -11 88 -7 73 -10 99 -25 200 -5 33 -12 78 -15 100 -4 22 -10 56
-15 75 -5 19 -11 52 -14 73 -8 54 -72 305 -103 407 -90 297 -185 529 -374 915
-73 150 -125 211 -216 252 -62 28 -177 40 -239 24z m44 -1146 c51 -135 106
-312 141 -450 17 -70 27 -116 47 -225 2 -14 9 -47 14 -75 5 -27 12 -75 16
-105 3 -30 8 -64 10 -75 2 -11 7 -54 10 -95 3 -41 8 -91 10 -110 9 -65 12
-575 4 -635 -4 -33 -11 -85 -14 -115 -12 -90 -55 -275 -93 -394 -260 -816
-953 -1484 -1782 -1720 -66 -19 -133 -37 -148 -40 -16 -2 -53 -9 -83 -15 -30
-7 -77 -14 -105 -17 -27 -3 -61 -8 -75 -10 -48 -10 -345 -12 -415 -4 -134 16
-151 19 -248 45 -102 26 -275 89 -291 106 -6 5 -16 9 -22 9 -14 0 -109 53
-194 108 -126 82 -290 231 -381 344 -28 34 -28 38 -12 46 24 13 119 40 218 62
175 38 297 71 406 106 63 21 116 39 119 39 3 1 14 5 25 10 11 4 72 28 135 52
212 84 547 255 758 388 184 116 406 289 500 389 77 82 104 151 104 256 0 98
-27 169 -92 242 -106 119 -267 154 -415 90 -50 -21 -46 -18 -126 -89 -97 -86
-116 -101 -211 -170 -181 -131 -480 -298 -705 -395 -138 -60 -422 -157 -503
-172 -14 -3 -34 -7 -45 -10 -11 -2 -72 -16 -136 -30 -64 -15 -170 -44 -235
-66 -65 -21 -120 -37 -122 -35 -22 22 -45 448 -29 521 3 12 8 45 12 75 47 376
278 785 585 1035 19 16 41 34 48 41 33 31 187 126 281 173 57 28 151 67 210
86 83 28 359 90 581 130 91 17 380 79 510 109 85 20 162 38 170 40 665 154
1117 358 1465 659 22 19 43 31 47 28 4 -4 29 -65 56 -137z"/>
</g>
</svg>
